# xmcd
#
# Track frame offsets:
# 150
# 20330
# 38090
#
# Disc length: 890 seconds
#
#
# Revision: 0
# Processed by: cddbd v1.4PL0 Copyright (c) Steve Scherf et al.
# Submitted via: FreeRIP 2.30 
#
DISCID=18037803
DTITLE=Emma Bunton - Free Me [CD-2)
DYEAR=2003
DGENRE=Pop
TTITLE0=Free Me (Single Version)
TTITLE1=Tomorrow
TTITLE2=Free Me (Full Intention's Sultra Mix)
EXTD=
EXTT0=
EXTT1=
EXTT2=
PLAYORDER=
